# xmcd CD database file
#
# Track frame offsets:
#	150
#	13150
#	26150
#	37097
#	50217
#	63520
#	76322
#	92215
#	104302
#	112072
#	124932
#	136485
#
# Disc length: 2008 seconds
#
# Revision: 0
# Processed by: cddbd v1.5.1PL0 Copyright (c) Steve Scherf et al.
# Submitted via: CDex 1.50
#
DISCID=b107d60c
DTITLE=Barbara Carroll - Lullabies in Rhythm
DYEAR=1954
DGENRE=Jazz
TTITLE0=You'd be so nice to come home to
TTITLE1=As long as I live
TTITLE2=But not for me
TTITLE3=I love Piano
TTITLE4=If I had you
TTITLE5=Garrow's way
TTITLE6=Come rain or come shine
TTITLE7=I saw stars
TTITLE8=By my self
TTITLE9=The lady is a tramp
TTITLE10=Sweet Georgia Brown
TTITLE11=I've got the world on a string
EXTD=YEAR: 1954
EXTT0=
EXTT1=
EXTT2=
EXTT3=
EXTT4=
EXTT5=
EXTT6=
EXTT7=
EXTT8=
EXTT9=
EXTT10=
EXTT11=
PLAYORDER=
